<?xml version="1.0" encoding="UTF-8"?>
<svg xmlns="http://www.w3.org/2000/svg" xmlns:xlink="http://www.w3.org/1999/xlink" width="215pt" height="138pt" viewBox="0 0 215 138" version="1.1">
<g id="surface1">
<path style="fill:none;stroke-width:1;stroke-linecap:round;stroke-linejoin:round;stroke:rgb(0%,0%,0%);stroke-opacity:1;stroke-miterlimit:10;" d="M 243 63 L 333 63 L 333 99 L 243 99 Z M 243 63 " transform="matrix(1.25,0,0,1.25,-236.25,-77.5)"/>
<path style="fill:none;stroke-width:1;stroke-linecap:round;stroke-linejoin:round;stroke:rgb(0%,0%,0%);stroke-opacity:1;stroke-miterlimit:10;" d="M 261 72 L 351 72 L 351 108 L 261 108 Z M 261 72 " transform="matrix(1.25,0,0,1.25,-236.25,-77.5)"/>
<path style="fill-rule:nonzero;fill:rgb(40%,74.901961%,100%);fill-opacity:1;stroke-width:1;stroke-linecap:round;stroke-linejoin:round;stroke:rgb(0%,0%,0%);stroke-opacity:1;stroke-miterlimit:10;" d="M 261 99 L 333 99 L 333 72 L 261 72 Z M 261 99 " transform="matrix(1.25,0,0,1.25,-236.25,-77.5)"/>
<path style=" stroke:none;fill-rule:nonzero;fill:rgb(0%,0%,0%);fill-opacity:1;" d="M 106.976562 32.941406 L 106.976562 24.894531 L 108.03125 24.894531 L 108.03125 32.941406 Z M 106.976562 32.941406 "/>
<path style=" stroke:none;fill-rule:nonzero;fill:rgb(0%,0%,0%);fill-opacity:1;" d="M 109.789062 32.941406 L 109.789062 27.101562 L 110.6875 27.101562 L 110.6875 27.941406 C 111.101562 27.304688 111.722656 26.984375 112.542969 26.984375 C 112.894531 26.984375 113.210938 27.050781 113.5 27.179688 C 113.796875 27.296875 114.019531 27.460938 114.164062 27.667969 C 114.304688 27.863281 114.410156 28.105469 114.476562 28.390625 C 114.515625 28.574219 114.535156 28.894531 114.535156 29.347656 L 114.535156 32.941406 L 113.539062 32.941406 L 113.539062 29.386719 C 113.539062 28.984375 113.5 28.683594 113.421875 28.488281 C 113.34375 28.292969 113.207031 28.136719 113.011719 28.019531 C 112.816406 27.890625 112.585938 27.824219 112.328125 27.824219 C 111.910156 27.824219 111.546875 27.960938 111.234375 28.234375 C 110.933594 28.496094 110.785156 29.003906 110.785156 29.757812 L 110.785156 32.941406 Z M 109.789062 32.941406 "/>
<path style=" stroke:none;fill-rule:nonzero;fill:rgb(0%,0%,0%);fill-opacity:1;" d="M 118.214844 32.0625 L 118.351562 32.921875 C 118.0625 32.984375 117.8125 33.019531 117.609375 33.019531 C 117.242188 33.019531 116.964844 32.960938 116.769531 32.84375 C 116.574219 32.726562 116.425781 32.578125 116.339844 32.394531 C 116.261719 32.214844 116.222656 31.828125 116.222656 31.242188 L 116.222656 27.882812 L 115.5 27.882812 L 115.5 27.101562 L 116.222656 27.101562 L 116.222656 25.65625 L 117.21875 25.070312 L 117.21875 27.101562 L 118.214844 27.101562 L 118.214844 27.882812 L 117.21875 27.882812 L 117.21875 31.28125 C 117.21875 31.570312 117.226562 31.75 117.257812 31.828125 C 117.296875 31.90625 117.355469 31.972656 117.433594 32.023438 C 117.511719 32.078125 117.617188 32.101562 117.765625 32.101562 C 117.882812 32.101562 118.027344 32.089844 118.214844 32.0625 Z M 118.214844 32.0625 "/>
<path style=" stroke:none;fill-rule:nonzero;fill:rgb(0%,0%,0%);fill-opacity:1;" d="M 123.15625 31.066406 L 124.191406 31.183594 C 124.019531 31.785156 123.710938 32.253906 123.273438 32.589844 C 122.84375 32.917969 122.285156 33.078125 121.613281 33.078125 C 120.761719 33.078125 120.089844 32.820312 119.582031 32.296875 C 119.082031 31.765625 118.839844 31.023438 118.839844 30.070312 C 118.839844 29.09375 119.09375 28.339844 119.601562 27.804688 C 120.109375 27.257812 120.761719 26.984375 121.574219 26.984375 C 122.355469 26.984375 122.984375 27.253906 123.46875 27.785156 C 123.960938 28.308594 124.210938 29.050781 124.210938 30.011719 C 124.210938 30.078125 124.210938 30.167969 124.210938 30.285156 L 119.855469 30.285156 C 119.894531 30.925781 120.074219 31.414062 120.402344 31.75 C 120.722656 32.089844 121.132812 32.257812 121.632812 32.257812 C 121.992188 32.257812 122.300781 32.167969 122.550781 31.984375 C 122.808594 31.789062 123.007812 31.484375 123.15625 31.066406 Z M 119.914062 29.464844 L 123.175781 29.464844 C 123.136719 28.972656 123.007812 28.601562 122.804688 28.351562 C 122.492188 27.976562 122.082031 27.785156 121.574219 27.785156 C 121.113281 27.785156 120.734375 27.941406 120.421875 28.253906 C 120.117188 28.554688 119.953125 28.957031 119.914062 29.464844 Z M 119.914062 29.464844 "/>
<path style=" stroke:none;fill-rule:nonzero;fill:rgb(0%,0%,0%);fill-opacity:1;" d="M 125.410156 32.941406 L 125.410156 27.101562 L 126.308594 27.101562 L 126.308594 28 C 126.527344 27.585938 126.738281 27.3125 126.933594 27.179688 C 127.128906 27.050781 127.34375 26.984375 127.578125 26.984375 C 127.898438 26.984375 128.242188 27.089844 128.59375 27.296875 L 128.242188 28.214844 C 128.007812 28.074219 127.761719 28 127.519531 28 C 127.308594 28 127.113281 28.066406 126.933594 28.195312 C 126.761719 28.328125 126.640625 28.507812 126.5625 28.742188 C 126.453125 29.09375 126.40625 29.480469 126.40625 29.894531 L 126.40625 32.941406 Z M 125.410156 32.941406 "/>
<path style=" stroke:none;fill-rule:nonzero;fill:rgb(0%,0%,0%);fill-opacity:1;" d="M 128.785156 31.203125 L 129.761719 31.046875 C 129.808594 31.4375 129.960938 31.738281 130.210938 31.945312 C 130.46875 32.15625 130.820312 32.257812 131.265625 32.257812 C 131.71875 32.257812 132.054688 32.167969 132.28125 31.984375 C 132.5 31.804688 132.613281 31.589844 132.613281 31.339844 C 132.613281 31.105469 132.515625 30.929688 132.320312 30.8125 C 132.171875 30.722656 131.835938 30.605469 131.304688 30.460938 C 130.570312 30.28125 130.0625 30.125 129.78125 29.992188 C 129.507812 29.863281 129.296875 29.679688 129.15625 29.445312 C 129.007812 29.210938 128.941406 28.953125 128.941406 28.664062 C 128.941406 28.40625 129 28.164062 129.117188 27.941406 C 129.234375 27.722656 129.394531 27.53125 129.605469 27.375 C 129.761719 27.273438 129.964844 27.179688 130.230469 27.101562 C 130.503906 27.023438 130.785156 26.984375 131.089844 26.984375 C 131.542969 26.984375 131.9375 27.050781 132.28125 27.179688 C 132.632812 27.3125 132.890625 27.488281 133.0625 27.707031 C 133.226562 27.929688 133.34375 28.230469 133.414062 28.605469 L 132.4375 28.742188 C 132.398438 28.445312 132.265625 28.210938 132.046875 28.039062 C 131.835938 27.871094 131.542969 27.785156 131.167969 27.785156 C 130.707031 27.785156 130.386719 27.863281 130.191406 28.019531 C 129.996094 28.164062 129.898438 28.339844 129.898438 28.546875 C 129.898438 28.679688 129.9375 28.789062 130.015625 28.878906 C 130.09375 28.996094 130.21875 29.089844 130.40625 29.152344 C 130.492188 29.191406 130.78125 29.277344 131.265625 29.40625 C 131.96875 29.589844 132.457031 29.738281 132.730469 29.855469 C 133.011719 29.972656 133.238281 30.148438 133.394531 30.382812 C 133.550781 30.605469 133.628906 30.886719 133.628906 31.222656 C 133.628906 31.5625 133.53125 31.875 133.335938 32.160156 C 133.140625 32.449219 132.855469 32.675781 132.496094 32.84375 C 132.144531 33 131.734375 33.078125 131.265625 33.078125 C 130.507812 33.078125 129.925781 32.921875 129.527344 32.609375 C 129.136719 32.285156 128.886719 31.816406 128.785156 31.203125 Z M 128.785156 31.203125 "/>
<path style=" stroke:none;fill-rule:nonzero;fill:rgb(0%,0%,0%);fill-opacity:1;" d="M 138.785156 31.066406 L 139.820312 31.183594 C 139.648438 31.785156 139.339844 32.253906 138.902344 32.589844 C 138.472656 32.917969 137.914062 33.078125 137.242188 33.078125 C 136.390625 33.078125 135.71875 32.820312 135.210938 32.296875 C 134.710938 31.765625 134.46875 31.023438 134.46875 30.070312 C 134.46875 29.09375 134.722656 28.339844 135.230469 27.804688 C 135.738281 27.257812 136.390625 26.984375 137.203125 26.984375 C 137.984375 26.984375 138.613281 27.253906 139.097656 27.785156 C 139.589844 28.308594 139.839844 29.050781 139.839844 30.011719 C 139.839844 30.078125 139.839844 30.167969 139.839844 30.285156 L 135.484375 30.285156 C 135.523438 30.925781 135.703125 31.414062 136.03125 31.75 C 136.351562 32.089844 136.761719 32.257812 137.261719 32.257812 C 137.621094 32.257812 137.929688 32.167969 138.179688 31.984375 C 138.4375 31.789062 138.636719 31.484375 138.785156 31.066406 Z M 135.542969 29.464844 L 138.804688 29.464844 C 138.765625 28.972656 138.636719 28.601562 138.433594 28.351562 C 138.121094 27.976562 137.710938 27.785156 137.203125 27.785156 C 136.742188 27.785156 136.363281 27.941406 136.050781 28.253906 C 135.746094 28.554688 135.582031 28.957031 135.542969 29.464844 Z M 135.542969 29.464844 "/>
<path style=" stroke:none;fill-rule:nonzero;fill:rgb(0%,0%,0%);fill-opacity:1;" d="M 144.867188 30.8125 L 145.84375 30.929688 C 145.734375 31.609375 145.460938 32.136719 145.023438 32.511719 C 144.578125 32.890625 144.035156 33.078125 143.402344 33.078125 C 142.605469 33.078125 141.964844 32.820312 141.488281 32.296875 C 141.003906 31.777344 140.765625 31.027344 140.765625 30.050781 C 140.765625 29.414062 140.867188 28.859375 141.078125 28.390625 C 141.28125 27.921875 141.59375 27.570312 142.015625 27.335938 C 142.445312 27.101562 142.914062 26.984375 143.421875 26.984375 C 144.046875 26.984375 144.558594 27.148438 144.964844 27.472656 C 145.363281 27.785156 145.628906 28.234375 145.746094 28.820312 L 144.789062 28.976562 C 144.695312 28.585938 144.535156 28.292969 144.300781 28.097656 C 144.066406 27.890625 143.78125 27.785156 143.460938 27.785156 C 142.953125 27.785156 142.542969 27.96875 142.230469 28.332031 C 141.925781 28.683594 141.78125 29.246094 141.78125 30.011719 C 141.78125 30.808594 141.925781 31.378906 142.230469 31.730469 C 142.527344 32.082031 142.917969 32.257812 143.402344 32.257812 C 143.792969 32.257812 144.113281 32.140625 144.378906 31.90625 C 144.636719 31.671875 144.796875 31.308594 144.867188 30.8125 Z M 144.867188 30.8125 "/>
<path style=" stroke:none;fill-rule:nonzero;fill:rgb(0%,0%,0%);fill-opacity:1;" d="M 148.851562 32.0625 L 148.988281 32.921875 C 148.699219 32.984375 148.449219 33.019531 148.246094 33.019531 C 147.878906 33.019531 147.601562 32.960938 147.40625 32.84375 C 147.210938 32.726562 147.0625 32.578125 146.976562 32.394531 C 146.898438 32.214844 146.859375 31.828125 146.859375 31.242188 L 146.859375 27.882812 L 146.136719 27.882812 L 146.136719 27.101562 L 146.859375 27.101562 L 146.859375 25.65625 L 147.855469 25.070312 L 147.855469 27.101562 L 148.851562 27.101562 L 148.851562 27.882812 L 147.855469 27.882812 L 147.855469 31.28125 C 147.855469 31.570312 147.863281 31.75 147.894531 31.828125 C 147.933594 31.90625 147.992188 31.972656 148.070312 32.023438 C 148.148438 32.078125 148.253906 32.101562 148.402344 32.101562 C 148.519531 32.101562 148.664062 32.089844 148.851562 32.0625 Z M 148.851562 32.0625 "/>
<path style=" stroke:none;fill-rule:nonzero;fill:rgb(0%,0%,0%);fill-opacity:1;" d="M 149.808594 26.027344 L 149.808594 24.894531 L 150.804688 24.894531 L 150.804688 26.027344 Z M 149.808594 32.941406 L 149.808594 27.101562 L 150.804688 27.101562 L 150.804688 32.941406 Z M 149.808594 32.941406 "/>
<path style=" stroke:none;fill-rule:nonzero;fill:rgb(0%,0%,0%);fill-opacity:1;" d="M 151.9375 30.03125 C 151.9375 28.953125 152.234375 28.152344 152.835938 27.628906 C 153.34375 27.199219 153.953125 26.984375 154.671875 26.984375 C 155.476562 26.984375 156.136719 27.246094 156.644531 27.765625 C 157.152344 28.289062 157.40625 29.011719 157.40625 29.933594 C 157.40625 30.691406 157.289062 31.28125 157.054688 31.710938 C 156.828125 32.140625 156.507812 32.480469 156.078125 32.726562 C 155.648438 32.960938 155.179688 33.078125 154.671875 33.078125 C 153.851562 33.078125 153.1875 32.820312 152.679688 32.296875 C 152.179688 31.765625 151.9375 31.007812 151.9375 30.03125 Z M 152.953125 30.03125 C 152.953125 30.773438 153.113281 31.335938 153.441406 31.710938 C 153.761719 32.078125 154.171875 32.257812 154.671875 32.257812 C 155.164062 32.257812 155.574219 32.078125 155.902344 31.710938 C 156.222656 31.335938 156.390625 30.761719 156.390625 29.992188 C 156.390625 29.277344 156.222656 28.730469 155.902344 28.351562 C 155.574219 27.976562 155.164062 27.785156 154.671875 27.785156 C 154.171875 27.785156 153.761719 27.976562 153.441406 28.351562 C 153.113281 28.71875 152.953125 29.277344 152.953125 30.03125 Z M 152.953125 30.03125 "/>
<path style=" stroke:none;fill-rule:nonzero;fill:rgb(0%,0%,0%);fill-opacity:1;" d="M 158.566406 32.941406 L 158.566406 27.101562 L 159.464844 27.101562 L 159.464844 27.941406 C 159.878906 27.304688 160.5 26.984375 161.320312 26.984375 C 161.671875 26.984375 161.988281 27.050781 162.277344 27.179688 C 162.574219 27.296875 162.792969 27.460938 162.941406 27.667969 C 163.082031 27.863281 163.183594 28.105469 163.253906 28.390625 C 163.292969 28.574219 163.3125 28.894531 163.3125 29.347656 L 163.3125 32.941406 L 162.316406 32.941406 L 162.316406 29.386719 C 162.316406 28.984375 162.277344 28.683594 162.199219 28.488281 C 162.121094 28.292969 161.984375 28.136719 161.789062 28.019531 C 161.59375 27.890625 161.363281 27.824219 161.105469 27.824219 C 160.683594 27.824219 160.324219 27.960938 160.011719 28.234375 C 159.707031 28.496094 159.5625 29.003906 159.5625 29.757812 L 159.5625 32.941406 Z M 158.566406 32.941406 "/>
<path style=" stroke:none;fill-rule:nonzero;fill:rgb(0%,0%,0%);fill-opacity:1;" d="M 10.773438 73.75 L 10.773438 63.007812 L 12.179688 63.007812 L 12.179688 73.75 Z M 10.773438 73.75 "/>
<path style=" stroke:none;fill-rule:nonzero;fill:rgb(0%,0%,0%);fill-opacity:1;" d="M 14.039062 69.863281 C 14.039062 68.417969 14.4375 67.351562 15.230469 66.660156 C 15.894531 66.089844 16.707031 65.800781 17.671875 65.800781 C 18.738281 65.800781 19.613281 66.152344 20.289062 66.855469 C 20.980469 67.546875 21.324219 68.511719 21.324219 69.746094 C 21.324219 70.75 21.175781 71.539062 20.875 72.109375 C 20.574219 72.6875 20.132812 73.132812 19.546875 73.457031 C 18.972656 73.769531 18.347656 73.925781 17.671875 73.925781 C 16.589844 73.925781 15.710938 73.585938 15.035156 72.890625 C 14.371094 72.1875 14.039062 71.179688 14.039062 69.863281 Z M 15.386719 69.863281 C 15.386719 70.855469 15.601562 71.597656 16.03125 72.089844 C 16.472656 72.585938 17.019531 72.832031 17.671875 72.832031 C 18.335938 72.832031 18.882812 72.585938 19.3125 72.089844 C 19.742188 71.597656 19.957031 70.839844 19.957031 69.824219 C 19.957031 68.863281 19.734375 68.132812 19.292969 67.636719 C 18.863281 67.144531 18.324219 66.894531 17.671875 66.894531 C 17.019531 66.894531 16.472656 67.144531 16.03125 67.636719 C 15.601562 68.121094 15.386719 68.863281 15.386719 69.863281 Z M 15.386719 69.863281 "/>
<path style=" stroke:none;fill-rule:nonzero;fill:rgb(0%,0%,0%);fill-opacity:1;" d="M 30.078125 63.007812 L 31.503906 63.007812 L 31.503906 69.21875 C 31.503906 70.304688 31.378906 71.164062 31.132812 71.796875 C 30.882812 72.421875 30.441406 72.9375 29.804688 73.339844 C 29.164062 73.730469 28.332031 73.925781 27.304688 73.925781 C 26.300781 73.925781 25.472656 73.753906 24.824219 73.417969 C 24.183594 73.066406 23.730469 72.570312 23.457031 71.914062 C 23.183594 71.25 23.046875 70.351562 23.046875 69.21875 L 23.046875 63.007812 L 24.472656 63.007812 L 24.472656 69.199219 C 24.472656 70.136719 24.554688 70.828125 24.726562 71.269531 C 24.90625 71.714844 25.207031 72.0625 25.625 72.304688 C 26.054688 72.539062 26.574219 72.65625 27.1875 72.65625 C 28.226562 72.65625 28.96875 72.421875 29.414062 71.953125 C 29.855469 71.476562 30.078125 70.554688 30.078125 69.199219 Z M 30.078125 63.007812 "/>
<path style=" stroke:none;fill-rule:nonzero;fill:rgb(0%,0%,0%);fill-opacity:1;" d="M 44.804688 67.441406 L 37.714844 67.441406 L 37.714844 66.210938 L 44.804688 66.210938 Z M 44.804688 70.703125 L 37.714844 70.703125 L 37.714844 69.472656 L 44.804688 69.472656 Z M 44.804688 70.703125 "/>
<path style="fill-rule:nonzero;fill:rgb(40%,74.901961%,100%);fill-opacity:1;stroke-width:1;stroke-linecap:round;stroke-linejoin:round;stroke:rgb(0%,0%,0%);stroke-opacity:1;stroke-miterlimit:10;" d="M 261 162 L 261 171 L 351 171 L 351 135 L 333 135 L 333 126 L 243 126 L 243 162 Z M 261 162 " transform="matrix(1.25,0,0,1.25,-236.25,-77.5)"/>
<path style=" stroke:none;fill-rule:nonzero;fill:rgb(0%,0%,0%);fill-opacity:1;" d="M 126.457031 103.644531 L 127.53125 103.644531 L 127.53125 108.292969 C 127.53125 109.101562 127.433594 109.746094 127.238281 110.226562 C 127.050781 110.695312 126.71875 111.082031 126.242188 111.378906 C 125.773438 111.679688 125.148438 111.828125 124.367188 111.828125 C 123.609375 111.828125 122.988281 111.695312 122.511719 111.4375 C 122.042969 111.179688 121.699219 110.800781 121.496094 110.304688 C 121.285156 109.8125 121.183594 109.140625 121.183594 108.292969 L 121.183594 103.644531 L 122.257812 103.644531 L 122.257812 108.292969 C 122.257812 108.984375 122.320312 109.5 122.453125 109.835938 C 122.578125 110.164062 122.804688 110.417969 123.117188 110.597656 C 123.429688 110.78125 123.820312 110.871094 124.289062 110.871094 C 125.070312 110.871094 125.621094 110.695312 125.949219 110.34375 C 126.285156 109.980469 126.457031 109.296875 126.457031 108.292969 Z M 126.457031 103.644531 "/>
<path style=" stroke:none;fill-rule:nonzero;fill:rgb(0%,0%,0%);fill-opacity:1;" d="M 129.171875 111.691406 L 129.171875 105.851562 L 130.070312 105.851562 L 130.070312 106.691406 C 130.484375 106.054688 131.105469 105.734375 131.925781 105.734375 C 132.277344 105.734375 132.59375 105.800781 132.882812 105.929688 C 133.179688 106.046875 133.398438 106.210938 133.546875 106.417969 C 133.6875 106.613281 133.789062 106.855469 133.859375 107.140625 C 133.898438 107.324219 133.917969 107.644531 133.917969 108.097656 L 133.917969 111.691406 L 132.921875 111.691406 L 132.921875 108.136719 C 132.921875 107.734375 132.882812 107.433594 132.804688 107.238281 C 132.726562 107.042969 132.589844 106.886719 132.394531 106.769531 C 132.199219 106.640625 131.96875 106.574219 131.710938 106.574219 C 131.289062 106.574219 130.929688 106.710938 130.617188 106.984375 C 130.3125 107.246094 130.167969 107.753906 130.167969 108.507812 L 130.167969 111.691406 Z M 129.171875 111.691406 "/>
<path style=" stroke:none;fill-rule:nonzero;fill:rgb(0%,0%,0%);fill-opacity:1;" d="M 135.425781 104.777344 L 135.425781 103.644531 L 136.421875 103.644531 L 136.421875 104.777344 Z M 135.425781 111.691406 L 135.425781 105.851562 L 136.421875 105.851562 L 136.421875 111.691406 Z M 135.425781 111.691406 "/>
<path style=" stroke:none;fill-rule:nonzero;fill:rgb(0%,0%,0%);fill-opacity:1;" d="M 137.554688 108.78125 C 137.554688 107.703125 137.855469 106.902344 138.453125 106.378906 C 138.960938 105.949219 139.574219 105.734375 140.289062 105.734375 C 141.097656 105.734375 141.753906 105.996094 142.261719 106.515625 C 142.769531 107.039062 143.023438 107.761719 143.023438 108.683594 C 143.023438 109.441406 142.90625 110.03125 142.671875 110.460938 C 142.449219 110.890625 142.125 111.230469 141.695312 111.476562 C 141.265625 111.710938 140.796875 111.828125 140.289062 111.828125 C 139.46875 111.828125 138.804688 111.570312 138.296875 111.046875 C 137.800781 110.515625 137.554688 109.757812 137.554688 108.78125 Z M 138.570312 108.78125 C 138.570312 109.523438 138.734375 110.085938 139.058594 110.460938 C 139.382812 110.828125 139.792969 111.007812 140.289062 111.007812 C 140.785156 111.007812 141.195312 110.828125 141.519531 110.460938 C 141.84375 110.085938 142.007812 109.511719 142.007812 108.742188 C 142.007812 108.027344 141.84375 107.480469 141.519531 107.101562 C 141.195312 106.726562 140.785156 106.535156 140.289062 106.535156 C 139.792969 106.535156 139.382812 106.726562 139.058594 107.101562 C 138.734375 107.46875 138.570312 108.027344 138.570312 108.78125 Z M 138.570312 108.78125 "/>
<path style=" stroke:none;fill-rule:nonzero;fill:rgb(0%,0%,0%);fill-opacity:1;" d="M 144.183594 111.691406 L 144.183594 105.851562 L 145.082031 105.851562 L 145.082031 106.691406 C 145.496094 106.054688 146.117188 105.734375 146.9375 105.734375 C 147.289062 105.734375 147.605469 105.800781 147.894531 105.929688 C 148.191406 106.046875 148.414062 106.210938 148.558594 106.417969 C 148.699219 106.613281 148.804688 106.855469 148.871094 107.140625 C 148.910156 107.324219 148.929688 107.644531 148.929688 108.097656 L 148.929688 111.691406 L 147.933594 111.691406 L 147.933594 108.136719 C 147.933594 107.734375 147.894531 107.433594 147.816406 107.238281 C 147.738281 107.042969 147.601562 106.886719 147.40625 106.769531 C 147.210938 106.640625 146.980469 106.574219 146.722656 106.574219 C 146.304688 106.574219 145.941406 106.710938 145.628906 106.984375 C 145.328125 107.246094 145.179688 107.753906 145.179688 108.507812 L 145.179688 111.691406 Z M 144.183594 111.691406 "/>
<path style="fill:none;stroke-width:1;stroke-linecap:round;stroke-linejoin:round;stroke:rgb(0%,0%,0%);stroke-opacity:1;stroke-miterlimit:10;" d="M 234 117 L 360 117 " transform="matrix(1.25,0,0,1.25,-236.25,-77.5)"/>
</g>
</svg>
